<svg width="40" height="40" viewBox="0 0 40 40" fill="none" xmlns="http://www.w3.org/2000/svg">
<g opacity="0.32">
<path fill-rule="evenodd" clip-rule="evenodd" d="M16.2213 10.8887C17.199 10.8442 17.5115 10.8333 20.001 10.8333H19.9982C22.4885 10.8333 22.7997 10.8442 23.7775 10.8887C24.7534 10.9334 25.4199 11.0879 26.0043 11.3146C26.6078 11.5485 27.1177 11.8617 27.6276 12.3716C28.1375 12.8811 28.4507 13.3925 28.6856 13.9954C28.9109 14.5783 29.0656 15.2444 29.1114 16.2203C29.1554 17.198 29.1668 17.5105 29.1668 20C29.1668 22.4895 29.1554 22.8012 29.1114 23.7789C29.0656 24.7544 28.9109 25.4207 28.6856 26.0038C28.4507 26.6065 28.1375 27.1179 27.6276 27.6274C27.1182 28.1373 26.6076 28.4513 26.0049 28.6854C25.4216 28.9121 24.7548 29.0666 23.7789 29.1113C22.8011 29.1558 22.4896 29.1666 19.9999 29.1666C17.5105 29.1666 17.1983 29.1558 16.2205 29.1113C15.2448 29.0666 14.5785 28.9121 13.9953 28.6854C13.3927 28.4513 12.8813 28.1373 12.372 27.6274C11.8623 27.1179 11.5491 26.6065 11.3148 26.0036C11.0883 25.4207 10.9338 24.7546 10.8889 23.7787C10.8446 22.801 10.8335 22.4895 10.8335 20C10.8335 17.5105 10.845 17.1978 10.8887 16.2201C10.9326 15.2446 11.0873 14.5783 11.3146 13.9952C11.5495 13.3925 11.8627 12.8811 12.3726 12.3716C12.8821 11.8619 13.3935 11.5487 13.9964 11.3146C14.5793 11.0879 15.2454 10.9334 16.2213 10.8887ZM19.6954 12.4851C19.51 12.485 19.3383 12.485 19.1786 12.4852V12.4829C17.4701 12.4848 17.1424 12.4963 16.2968 12.5345C15.403 12.5755 14.9178 12.7245 14.5946 12.8505C14.1669 13.0171 13.8613 13.2157 13.5405 13.5365C13.2196 13.8574 13.0206 14.1629 12.8545 14.5907C12.729 14.9138 12.5797 15.3989 12.5388 16.2926C12.4949 17.2589 12.4861 17.5477 12.4861 19.9956C12.4861 22.4435 12.4949 22.7337 12.5388 23.7001C12.5795 24.5938 12.729 25.0789 12.8545 25.4016C13.021 25.8296 13.2196 26.1344 13.5405 26.4552C13.8613 26.776 14.1669 26.9747 14.5946 27.1408C14.918 27.2663 15.403 27.4156 16.2968 27.4569C17.2631 27.5008 17.5532 27.5103 20.0009 27.5103C22.4484 27.5103 22.7387 27.5008 23.7051 27.4569C24.5988 27.416 25.0843 27.267 25.407 27.141C25.835 26.9749 26.1396 26.7762 26.4604 26.4554C26.7813 26.1348 26.9803 25.8302 27.1464 25.4024C27.2719 25.0796 27.4212 24.5946 27.4621 23.7008C27.506 22.7345 27.5156 22.4442 27.5156 19.9979C27.5156 17.5515 27.506 17.2612 27.4621 16.2949C27.4214 15.4012 27.2719 14.9161 27.1464 14.5934C26.9799 14.1656 26.7813 13.86 26.4604 13.5392C26.1398 13.2184 25.8348 13.0197 25.407 12.8536C25.0839 12.7281 24.5988 12.5788 23.7051 12.5379C22.7385 12.494 22.4484 12.4852 20.0009 12.4852C19.8951 12.4852 19.7934 12.4852 19.6954 12.4851Z" fill="white"/>
<path fill-rule="evenodd" clip-rule="evenodd" d="M24.8942 14.0073C24.2869 14.0073 23.7942 14.4994 23.7942 15.1069C23.7942 15.7142 24.2869 16.2069 24.8942 16.2069C25.5015 16.2069 25.9942 15.7142 25.9942 15.1069C25.9942 14.4996 25.5015 14.0073 24.8942 14.0073Z" fill="white"/>
<path fill-rule="evenodd" clip-rule="evenodd" d="M15.2935 20C15.2935 17.4003 17.4013 15.2925 20.001 15.2925C22.6008 15.2925 24.7078 17.4003 24.7078 20C24.7078 22.5997 22.6008 24.7065 20.001 24.7065C17.4013 24.7065 15.2935 22.5997 15.2935 20ZM23.0567 20C23.0567 18.3124 21.6885 16.9444 20.0011 16.9444C18.3135 16.9444 16.9455 18.3124 16.9455 20C16.9455 21.6874 18.3135 23.0555 20.0011 23.0555C21.6885 23.0555 23.0567 21.6874 23.0567 20Z" fill="white"/>
<rect x="0.5" y="0.5" width="39" height="39" rx="19.5" stroke="white"/>
</g>
</svg>
