<svg width="40" height="40" viewBox="0 0 40 40" fill="none" xmlns="http://www.w3.org/2000/svg">
<g>
<path fill-rule="evenodd" clip-rule="evenodd" d="M20.8993 24.9582C20.8993 24.9582 21.2301 24.9231 21.3996 24.749C21.5547 24.5896 21.5494 24.2886 21.5494 24.2886C21.5494 24.2886 21.5287 22.8835 22.2111 22.676C22.8836 22.472 23.7471 24.0349 24.6635 24.6359C25.3558 25.0902 25.8812 24.9908 25.8812 24.9908L28.3301 24.9582C28.3301 24.9582 29.6105 24.8828 29.0035 23.92C28.9533 23.8411 28.6493 23.2076 27.1832 21.9061C25.6472 20.5439 25.8534 20.7642 27.7024 18.4074C28.8286 16.9723 29.2788 16.0961 29.138 15.7214C29.0044 15.3631 28.1758 15.4582 28.1758 15.4582L25.4194 15.4745C25.4194 15.4745 25.215 15.448 25.0635 15.5345C24.9155 15.6194 24.8196 15.8175 24.8196 15.8175C24.8196 15.8175 24.3838 16.9277 23.8018 17.8725C22.5743 19.8649 22.0838 19.9703 21.8829 19.8469C21.4157 19.5579 21.5323 18.6878 21.5323 18.0696C21.5323 16.1381 21.839 15.3331 20.936 15.1247C20.6365 15.0553 20.4159 15.0099 19.6493 15.0021C18.6656 14.9927 17.8335 15.0056 17.3618 15.2259C17.048 15.3725 16.8059 15.7 16.9538 15.7189C17.1359 15.742 17.5483 15.8252 17.7671 16.1098C18.0496 16.4776 18.0397 17.3023 18.0397 17.3023C18.0397 17.3023 18.202 19.5759 17.6604 19.858C17.2892 20.0518 16.7799 19.6565 15.685 17.8484C15.1246 16.9225 14.7014 15.8989 14.7014 15.8989C14.7014 15.8989 14.6198 15.7077 14.4736 15.6048C14.297 15.4805 14.0504 15.442 14.0504 15.442L11.4312 15.4582C11.4312 15.4582 11.0375 15.4685 10.8932 15.6323C10.7649 15.7772 10.8833 16.0781 10.8833 16.0781C10.8833 16.0781 12.934 20.6656 15.2564 22.9778C17.386 25.0971 19.8035 24.9582 19.8035 24.9582H20.8993Z" fill="white"/>
<rect x="0.5" y="0.5" width="39" height="39" rx="19.5" stroke="white"/>
</g>
</svg>
