<svg width="40" height="40" viewBox="0 0 40 40" fill="none" xmlns="http://www.w3.org/2000/svg">
<g opacity="0.32">
<path fill-rule="evenodd" clip-rule="evenodd" d="M27.1628 13.7314C27.9516 13.9504 28.5729 14.5958 28.7837 15.4154C29.1668 16.9007 29.1668 20 29.1668 20C29.1668 20 29.1668 23.0991 28.7837 24.5846C28.5729 25.4042 27.9516 26.0496 27.1628 26.2687C25.7332 26.6666 20.0002 26.6666 20.0002 26.6666C20.0002 26.6666 14.2671 26.6666 12.8375 26.2687C12.0486 26.0496 11.4274 25.4042 11.2165 24.5846C10.8335 23.0991 10.8335 20 10.8335 20C10.8335 20 10.8335 16.9007 11.2165 15.4154C11.4274 14.5958 12.0486 13.9504 12.8375 13.7314C14.2671 13.3333 20.0002 13.3333 20.0002 13.3333C20.0002 13.3333 25.7332 13.3333 27.1628 13.7314ZM18.2814 17.3913V23.1884L22.8648 20.2899L18.2814 17.3913Z" fill="white"/>
<rect x="0.5" y="0.5" width="39" height="39" rx="19.5" stroke="white"/>
</g>
</svg>
