<svg width="40" height="40" viewBox="0 0 40 40" fill="none" xmlns="http://www.w3.org/2000/svg">
<path d="M12.6733 17.7685C13.7535 15.8152 15.0916 14.0507 16.3439 12.711C16.4014 12.9934 16.4741 13.3214 16.5635 13.6723C16.8317 14.7249 17.2668 16.0556 17.9298 16.9618L18.7854 18.1314L18.8331 16.6831C18.8997 14.6584 19.4532 12.3795 20.3174 10.5408C20.7491 9.62244 21.2504 8.83065 21.7926 8.23863C22.0467 7.96116 22.3041 7.73356 22.562 7.5571C22.0111 10.0947 22.6028 12.8528 24.5957 15.3131C24.8604 15.6456 25.1659 15.9974 25.4925 16.3734C27.2068 18.3476 29.5 20.9884 29.5 25C29.5 27.3056 28.269 29.254 26.4407 30.6435C24.6081 32.0362 22.2142 32.8333 20 32.8333C17.8035 32.8333 15.4093 32.0365 13.5718 30.6432C11.7384 29.253 10.5 27.3044 10.5 25C10.5 22.6167 11.3945 20.081 12.6733 17.7685Z" stroke="#1E2833"/>
</svg>
