<svg width="40" height="40" viewBox="0 0 40 40" xmlns="http://www.w3.org/2000/svg">
<path d="M34.7664 5.57514C34.2898 5.09379 33.6699 4.78008 32.9998 4.68114C32.8999 4.01061 32.5849 3.39067 32.1023 2.91461C30.958 1.7703 29.1878 1.67733 28.1687 2.70721C27.2532 3.62265 27.2246 5.11741 28.0257 6.24384L25.7656 8.50386C23.0086 6.35827 19.2896 6.00068 16.5468 7.62417L16.5003 7.65278L9.34835 12.9738C8.45192 13.3515 7.63709 13.8991 6.94887 14.5866C3.26562 18.2698 4.10955 25.1071 8.82626 29.8238C11.5476 32.563 15.0127 33.997 18.1345 33.997C19.2226 34.0266 20.3058 33.8391 21.3207 33.4456C22.3356 33.052 23.2619 32.4602 24.0456 31.7048C24.8096 30.9367 25.3998 30.0135 25.7764 28.9978L30.9758 22.139L31.008 22.089C32.8389 19.0208 32.1452 14.7725 29.3559 11.9833L29.2379 11.8653L31.4407 9.66247C31.9025 9.99273 32.4476 10.1872 33.0141 10.2239C33.3736 10.2531 33.7351 10.2044 34.0739 10.0809C34.4128 9.95749 34.7209 9.7623 34.9774 9.50871C36.0072 8.49313 35.9143 6.72302 34.7664 5.57514ZM23.2875 30.9431C20.0191 34.208 13.8684 33.364 9.56649 29.0657C5.26459 24.7674 4.42066 18.6096 7.68552 15.3447C8.37018 14.6878 9.1787 14.1737 10.064 13.8324C10.9493 13.491 11.8936 13.3292 12.8421 13.3565C15.7029 13.3565 18.8712 14.6903 21.4065 17.2257C25.7084 21.524 26.5524 27.6782 23.2875 30.9431ZM30.1033 21.5168L26.3163 26.5232C26.5559 23.2047 25.122 19.4249 22.1682 16.4711C19.2145 13.5174 15.3453 12.0441 11.9981 12.3301L17.1118 8.53246C19.5899 7.06989 23.0121 7.51689 25.451 9.63029C25.5904 9.7483 25.7335 9.88061 25.8872 10.0344L28.6014 12.7271C31.0366 15.1838 31.666 18.867 30.1033 21.5168ZM34.2192 8.7649C34.069 8.90786 33.8895 9.01644 33.6932 9.08313C33.4968 9.14982 33.2883 9.17301 33.0821 9.15111C32.5922 9.1119 32.1334 8.89582 31.7912 8.54319C31.6906 8.44274 31.5543 8.38632 31.4121 8.38632C31.27 8.38632 31.1336 8.44274 31.0331 8.54319L28.4834 11.0929L26.6489 9.25839L26.5774 9.18687L29.1235 6.64793C29.2239 6.54735 29.2804 6.41102 29.2804 6.26887C29.2804 6.12673 29.2239 5.9904 29.1235 5.88982C28.4083 5.17463 28.3046 4.07323 28.9161 3.46174C29.5276 2.85024 30.6147 2.94322 31.3442 3.66914C31.544 3.86223 31.7013 4.09493 31.806 4.35233C31.9106 4.60973 31.9604 4.88615 31.9521 5.1639C31.9477 5.23968 31.9595 5.31552 31.9866 5.38641C32.0137 5.4573 32.0556 5.52162 32.1094 5.57514C32.1629 5.62796 32.2267 5.6692 32.2969 5.69627C32.367 5.72334 32.442 5.73567 32.5171 5.73248C32.7944 5.72331 33.0705 5.77271 33.3275 5.87746C33.5844 5.98221 33.8164 6.13995 34.0083 6.34039C34.7342 7.06274 34.8307 8.15341 34.2192 8.7649Z" fill="#1E2833"/>
<path d="M16.0488 25.8616C16.3351 25.867 16.6196 25.8151 16.8856 25.7089C17.1515 25.6026 17.3935 25.4442 17.5972 25.243C17.8368 24.9944 18.015 24.6932 18.1174 24.3635C18.2199 24.0338 18.2438 23.6847 18.1873 23.3441C18.0778 22.6121 17.7311 21.9361 17.2003 21.4203C16.0381 20.2581 14.3216 20.0793 13.3776 21.0233C12.4335 21.9674 12.6123 23.6838 13.7745 24.846C14.3698 25.4702 15.1867 25.835 16.0488 25.8616ZM14.1321 21.7922C14.2378 21.6933 14.3621 21.6165 14.4978 21.5661C14.6335 21.5158 14.7778 21.4929 14.9224 21.4989C15.499 21.5244 16.0435 21.7717 16.4422 22.1891C16.8053 22.5382 17.044 22.9966 17.1216 23.4943C17.1553 23.6717 17.1473 23.8545 17.0983 24.0282C17.0492 24.202 16.9605 24.362 16.8391 24.4956C16.3206 25.0141 15.2657 24.8317 14.5326 24.0987C13.7995 23.3656 13.6172 22.3071 14.1321 21.7922Z" fill="#1E2833"/>
<path d="M12.3835 20.0042C12.7035 19.8855 13.0435 19.8296 13.3847 19.8397L13.7423 19.8183C14.2603 19.7734 14.7538 19.5778 15.1618 19.2556C15.5698 18.9334 15.8744 18.4987 16.0381 18.0053C16.1692 17.5982 16.1708 17.1606 16.0427 16.7526C15.9146 16.3446 15.6631 15.9864 15.3229 15.7274C14.7835 15.3024 14.1598 14.9972 13.4933 14.832C12.8268 14.6667 12.1327 14.6453 11.4573 14.769C10.6735 14.8881 9.9229 15.1682 9.25269 15.5916C8.58248 16.015 8.00719 16.5726 7.56305 17.2293C6.80736 18.561 6.50372 20.1017 6.69766 21.6206C6.89434 22.7613 7.24121 24.1917 8.16023 25.1751C8.24303 25.2631 8.33271 25.3444 8.42843 25.4182C8.91364 25.7844 9.50484 25.9827 10.1127 25.9833C10.4626 25.9881 10.8089 25.9122 11.1247 25.7615C11.4393 25.604 11.7005 25.357 11.8754 25.0517C12.0503 24.7464 12.1313 24.3962 12.1081 24.0451C12.0837 23.6366 11.9831 23.2364 11.8113 22.865C11.7298 22.6777 11.664 22.4839 11.6146 22.2857C11.5048 21.7367 11.5673 21.1672 11.7934 20.6551C11.9105 20.3774 12.1186 20.1479 12.3835 20.0042ZM10.8172 20.2081C10.4977 20.9276 10.4102 21.7287 10.5669 22.5003C10.6282 22.7586 10.7119 23.011 10.8172 23.2548C10.9371 23.5056 11.0121 23.7755 11.0389 24.0522C11.0579 24.2012 11.0308 24.3524 10.9611 24.4855C10.8913 24.6185 10.7825 24.7269 10.6491 24.796C10.3905 24.893 10.1116 24.9229 9.83828 24.8829C9.565 24.8429 9.30632 24.7343 9.08641 24.5672C9.03666 24.5279 8.99003 24.4849 8.94695 24.4384C8.23175 23.666 7.93137 22.4287 7.75972 21.4346C7.6208 20.1823 7.87049 18.9177 8.47492 17.8122C8.8361 17.2809 9.30348 16.8302 9.84757 16.4886C10.3916 16.147 11.0006 15.9219 11.6361 15.8275C11.8726 15.7895 12.1117 15.7704 12.3513 15.7703C13.187 15.761 14.0003 16.0401 14.6542 16.5606C14.8266 16.6844 14.9546 16.8605 15.019 17.0628C15.0834 17.265 15.0809 17.4827 15.0118 17.6834C14.9116 17.9721 14.7313 18.2263 14.4919 18.4163C14.2525 18.6063 13.964 18.7242 13.6601 18.7562L13.3311 18.7741C12.8406 18.764 12.3533 18.8565 11.9007 19.0459C11.4178 19.2987 11.0356 19.7087 10.8172 20.2081Z" fill="#1E2833"/>
<path d="M23.1367 23.4549C22.8851 23.1087 22.5322 22.8491 22.1267 22.712C21.7213 22.5749 21.2833 22.5671 20.8732 22.6896C20.3762 22.8433 19.9352 23.1393 19.6047 23.541C19.2742 23.9427 19.0687 24.4324 19.0136 24.9496C19.0136 25.0677 18.9958 25.1892 18.985 25.3072C18.9907 25.6521 18.9288 25.9947 18.8027 26.3157C18.6553 26.5799 18.4218 26.7856 18.1411 26.8985C17.6273 27.1112 17.0607 27.1611 16.5176 27.0416C16.3203 26.9885 16.1277 26.9191 15.9419 26.8342C15.5733 26.6542 15.1742 26.545 14.7654 26.5123C14.4142 26.4819 14.0619 26.556 13.7526 26.7252C13.4434 26.8945 13.1911 27.1513 13.0275 27.4636C12.8304 27.8991 12.7534 28.3794 12.8043 28.8547C12.8553 29.33 13.0323 29.7831 13.3171 30.167C13.3885 30.2637 13.4674 30.3545 13.5531 30.4388C14.5151 31.3757 15.9419 31.7511 17.0755 31.9693C17.3951 32.0285 17.7195 32.0572 18.0446 32.0551C19.2457 32.0635 20.4293 31.767 21.4846 31.1933C22.15 30.7618 22.7188 30.1971 23.1552 29.5349C23.5915 28.8726 23.886 28.1272 24.02 27.3455C24.1579 26.6715 24.1504 25.9758 23.9981 25.3049C23.8458 24.634 23.5521 24.0033 23.1367 23.4549ZM22.9651 27.1524C22.8583 27.7859 22.6215 28.3903 22.2694 28.9276C21.9174 29.465 21.4578 29.9235 20.9196 30.2743C19.8015 30.855 18.5317 31.0772 17.2829 30.9108C16.2959 30.7177 15.0622 30.403 14.3041 29.6628C14.2586 29.6185 14.2167 29.5707 14.1789 29.5197C14.0156 29.297 13.9116 29.0364 13.8766 28.7625C13.8415 28.4885 13.8767 28.2101 13.9787 27.9535C14.0462 27.8261 14.1506 27.7221 14.2782 27.6551C14.4058 27.5881 14.5507 27.5612 14.6939 27.578H14.7404C15.0167 27.6098 15.2854 27.6897 15.5342 27.814C15.7752 27.9238 16.0253 28.0123 16.2816 28.0786C17.0525 28.2538 17.8589 28.1838 18.5881 27.8784C19.0951 27.6674 19.5142 27.2887 19.7753 26.8056C19.9745 26.3551 20.0768 25.8678 20.0757 25.3752C20.0757 25.2643 20.0757 25.1535 20.1007 25.0462C20.1366 24.7461 20.2562 24.4622 20.446 24.2269C20.6357 23.9916 20.8878 23.8145 21.1735 23.7159C21.3774 23.6525 21.5964 23.6569 21.7975 23.7285C21.9987 23.8 22.1712 23.9349 22.2892 24.1129C22.6118 24.5429 22.8389 25.0368 22.9555 25.5615C23.072 26.0863 23.0753 26.6299 22.9651 27.156V27.1524Z" fill="#1E2833"/>
</svg>
