<svg width="40" height="40" viewBox="0 0 40 40" fill="none" xmlns="http://www.w3.org/2000/svg">
<path d="M17.6159 3.45897C17.5969 3.46419 17.5783 3.47056 17.5601 3.47804C17.5247 3.48603 17.4902 3.49784 17.4572 3.51328C17.4269 3.52885 17.3982 3.54752 17.3715 3.56901C17.3469 3.58714 17.324 3.60751 17.303 3.62987C17.2765 3.66024 17.2536 3.6937 17.2348 3.72954C17.2243 3.74335 17.2144 3.75773 17.2054 3.7726L16.0682 6.43953L16.0648 6.44761L14.5298 10.0474C14.5265 10.0538 14.5245 10.0604 14.5215 10.0669L4.88636 32.6636C4.80284 32.8582 4.77905 33.0737 4.81809 33.2822C4.85714 33.4906 4.9572 33.6824 5.10525 33.8324C5.25331 33.9825 5.44252 34.0839 5.64825 34.1235C5.85397 34.1631 6.0667 34.139 6.25875 34.0545L15.4072 30.0502V33.4169C15.4079 33.8369 15.573 34.2396 15.8664 34.5364C16.1597 34.8332 16.5573 34.9999 16.9719 35C17.1825 35.0003 17.3909 34.9574 17.5847 34.8739C17.7784 34.7903 17.9535 34.6679 18.0993 34.514C18.2451 34.3601 18.3587 34.1778 18.4331 33.9783C18.5076 33.7787 18.5414 33.5659 18.5325 33.3527V32.2628C18.6991 32.3263 18.8754 32.3596 19.0534 32.3613C19.4677 32.3608 19.8649 32.1939 20.1578 31.897C20.4508 31.6002 20.6156 31.1977 20.616 30.7779V27.7681L24.7831 25.9439V28.6667C24.7837 29.0868 24.9489 29.4894 25.2422 29.7862C25.5356 30.083 25.9332 30.2498 26.3477 30.2499C26.5583 30.2502 26.7667 30.2073 26.9605 30.1237C27.1543 30.0402 27.3293 29.9178 27.4752 29.7639C27.621 29.6099 27.7345 29.4277 27.809 29.2281C27.8834 29.0285 27.9172 28.8157 27.9083 28.6026V27.5127C28.0749 27.5761 28.2512 27.6094 28.4292 27.6112C28.8435 27.6107 29.2407 27.4437 29.5337 27.1469C29.8266 26.85 29.9914 26.4476 29.9918 26.0278V23.6672L34.7662 21.5774C34.795 21.5612 34.8221 21.5421 34.8471 21.5204C34.8692 21.5073 34.8903 21.4924 34.9102 21.4761C34.9533 21.4281 34.9912 21.3757 35.0234 21.3196C35.0389 21.2848 35.0504 21.2484 35.0579 21.211C35.0646 21.1935 35.0703 21.1755 35.075 21.1573C35.3757 18.7613 35.1312 16.3272 34.3602 14.0417C33.5893 11.7562 32.3123 9.67974 30.6271 7.97147C28.9419 6.26319 26.8932 4.96838 24.638 4.18622C22.3827 3.40406 19.9807 3.15529 17.6159 3.45897ZM15.3692 10.7404C15.9798 10.5797 16.6213 10.5837 17.2299 10.7522C17.8385 10.9206 18.393 11.2475 18.8382 11.7003C19.1773 12.0433 19.4464 12.4506 19.63 12.899C19.8137 13.3474 19.9083 13.828 19.9085 14.3135C19.9087 14.7989 19.8145 15.2797 19.6313 15.7282C19.4481 16.1768 19.1794 16.5843 18.8406 16.9276C18.5018 17.2709 18.0996 17.5431 17.6569 17.7288C17.2143 17.9145 16.7398 18.0099 16.2607 18.0097C15.7816 18.0095 15.3072 17.9136 14.8647 17.7275C14.4222 17.5414 14.0203 17.2688 13.6818 16.9252C13.4446 16.6805 13.2433 16.4026 13.0839 16.1L15.3692 10.7404ZM11.0041 20.9777C11.394 21.1326 11.7491 21.3654 12.0484 21.6622C12.3476 21.9591 12.5848 22.314 12.7459 22.7057C12.9069 23.0974 12.9885 23.5179 12.9857 23.9423C12.983 24.3666 12.896 24.786 12.7299 25.1756C12.5638 25.5651 12.322 25.9168 12.0189 26.2097C11.7159 26.5025 11.3577 26.7306 10.9659 26.8802C10.574 27.0299 10.1564 27.0981 9.73796 27.0808C9.31952 27.0634 8.90881 26.9609 8.53029 26.7794L11.0041 20.9777ZM28.4292 26.5556C28.2917 26.5536 28.1603 26.4974 28.063 26.3988C27.9658 26.3003 27.9103 26.1672 27.9083 26.0278V25.5C27.9083 25.36 27.8535 25.2258 27.7558 25.1268C27.6581 25.0278 27.5256 24.9722 27.3874 24.9722C27.2493 24.9722 27.1168 25.0278 27.0191 25.1268C26.9214 25.2258 26.8666 25.36 26.8666 25.5V28.6026C26.8717 28.735 26.8319 28.8652 26.7537 28.9714C26.6756 29.0777 26.5639 29.1536 26.4373 29.1866C26.3623 29.1997 26.2855 29.1961 26.212 29.176C26.1386 29.156 26.0704 29.12 26.0121 29.0705C25.9538 29.021 25.9069 28.9593 25.8745 28.8896C25.8422 28.8198 25.8252 28.7438 25.8248 28.6667V23.9166C25.8244 23.4968 25.6596 23.0943 25.3666 22.7975C25.0737 22.5007 24.6765 22.3337 24.2622 22.3332C24.124 22.3332 23.9915 22.3888 23.8939 22.4878C23.7962 22.5868 23.7413 22.721 23.7413 22.861C23.7413 23.001 23.7962 23.1352 23.8939 23.2342C23.9915 23.3332 24.124 23.3888 24.2622 23.3888C24.4003 23.389 24.5327 23.4446 24.6303 23.5436C24.728 23.6425 24.7829 23.7767 24.7831 23.9166V24.7941L19.8931 26.9348L19.8915 26.9354L19.8886 26.9367C19.8755 26.9425 19.8673 26.9538 19.8548 26.9605C19.8065 26.9843 19.7622 27.0155 19.7233 27.0531C19.6856 27.1086 19.6491 27.165 19.6139 27.2222C19.5978 27.2686 19.5881 27.3171 19.5852 27.3662C19.5805 27.3843 19.5769 27.4027 19.5743 27.4212V30.7779C19.5741 30.9179 19.5192 31.052 19.4215 31.151C19.3239 31.2499 19.1915 31.3056 19.0534 31.3057C18.9158 31.3038 18.7845 31.2475 18.6872 31.149C18.5899 31.0504 18.5344 30.9173 18.5325 30.7779V30.2501C18.5325 30.1101 18.4776 29.9759 18.3799 29.8769C18.2822 29.7779 18.1498 29.7223 18.0116 29.7223C17.8735 29.7223 17.741 29.7779 17.6433 29.8769C17.5456 29.9759 17.4907 30.1101 17.4907 30.2501V33.3527C17.4958 33.4851 17.456 33.6153 17.3779 33.7216C17.2998 33.8278 17.1881 33.9037 17.0614 33.9367C16.9865 33.9498 16.9096 33.9462 16.8362 33.9262C16.7628 33.9061 16.6946 33.8701 16.6363 33.8206C16.578 33.7712 16.531 33.7094 16.4987 33.6397C16.4663 33.57 16.4494 33.4939 16.449 33.4169V28.6667C16.4485 28.2469 16.2837 27.8445 15.9908 27.5476C15.6978 27.2508 15.3006 27.0838 14.8863 27.0834C14.7482 27.0834 14.6157 27.139 14.518 27.238C14.4203 27.3369 14.3655 27.4712 14.3655 27.6112C14.3655 27.7511 14.4203 27.8854 14.518 27.9844C14.6157 28.0833 14.7482 28.139 14.8863 28.139C15.0244 28.1391 15.1568 28.1947 15.2545 28.2937C15.3522 28.3926 15.4071 28.5268 15.4072 28.6667V28.9003L5.84266 33.0826L8.11674 27.7493C8.62126 27.9862 9.16749 28.1183 9.72321 28.1378C10.2789 28.1573 10.8329 28.0639 11.3524 27.863C11.8719 27.6622 12.3465 27.3579 12.7481 26.9682C13.1497 26.5785 13.4702 26.1113 13.6907 25.5941C13.9113 25.0768 14.0274 24.5201 14.0321 23.9567C14.0369 23.3933 13.9303 22.8346 13.7186 22.3136C13.5069 21.7926 13.1943 21.3199 12.7994 20.9232C12.4045 20.5266 11.9352 20.2141 11.4192 20.0042L12.5888 17.2611C13.0913 17.9066 13.7506 18.4089 14.5021 18.7187C15.2537 19.0285 16.0717 19.1354 16.8762 19.0288C17.6808 18.9222 18.4442 18.6057 19.0918 18.1105C19.7394 17.6152 20.2491 16.9581 20.5709 16.2034C20.8927 15.4487 21.0156 14.6222 20.9276 13.805C20.8396 12.9877 20.5438 12.2075 20.069 11.5409C19.5942 10.8742 18.9567 10.3438 18.2189 10.0017C17.4812 9.65955 16.6684 9.51734 15.8601 9.58898L16.894 7.1642C20.427 7.1671 24.0822 8.80406 26.9373 11.6967C29.7961 14.5933 31.4124 18.292 31.414 21.8949L29.9637 22.5297C29.9347 22.4195 29.8708 22.322 29.7817 22.2522C29.6927 22.1824 29.5835 22.1441 29.471 22.1433C29.4026 22.1433 29.3348 22.1569 29.2716 22.1834C29.2084 22.21 29.151 22.2488 29.1026 22.2978C29.0542 22.3469 29.0159 22.4051 28.9897 22.4691C28.9635 22.5331 28.9501 22.6018 28.9501 22.6711V26.0278C28.95 26.1677 28.895 26.3019 28.7974 26.4008C28.6997 26.4998 28.5673 26.5554 28.4292 26.5556ZM34.0698 20.7324L32.4514 21.4408C32.2154 17.4602 30.5099 13.7153 27.6738 10.9504C24.7441 7.98126 21.0116 6.24158 17.3424 6.11258L18.0397 4.47716C20.2026 4.24249 22.3899 4.50173 24.4409 5.23585C26.4919 5.96996 28.3546 7.1603 29.8922 8.71943C31.4297 10.2786 32.603 12.1669 33.326 14.2457C34.0489 16.3245 34.3031 18.541 34.0698 20.7324Z" fill="#1E2833"/>
<path d="M25.6366 14.6067C25.0189 14.6066 24.4202 14.8208 23.9427 15.2126C23.4651 15.6045 23.1382 16.1498 23.0176 16.7556C22.8971 17.3615 22.9904 17.9904 23.2815 18.5352C23.5727 19.08 24.0438 19.507 24.6145 19.7434C25.1852 19.9798 25.8202 20.011 26.4114 19.8317C27.0025 19.6524 27.5132 19.2736 27.8564 18.76C28.1995 18.2464 28.354 17.6296 28.2934 17.0149C28.2329 16.4001 27.961 15.8254 27.5242 15.3886C27.2769 15.1399 26.9827 14.9427 26.6587 14.8085C26.3347 14.6743 25.9873 14.6057 25.6366 14.6067ZM26.8378 18.4778C26.5142 18.7868 26.084 18.9592 25.6366 18.9592C25.1892 18.9592 24.759 18.7868 24.4354 18.4778C24.1978 18.2402 24.0359 17.9375 23.9704 17.608C23.9048 17.2784 23.9384 16.9368 24.067 16.6263C24.1955 16.3159 24.4133 16.0505 24.6927 15.8638C24.9721 15.6771 25.3006 15.5775 25.6366 15.5775C25.9726 15.5775 26.3011 15.6771 26.5805 15.8638C26.8599 16.0505 27.0776 16.3159 27.2062 16.6263C27.3348 16.9368 27.3684 17.2784 27.3028 17.608C27.2372 17.9375 27.0754 18.2402 26.8378 18.4778Z" fill="#1E2833"/>
<path d="M19.7037 19.3534C19.2232 19.3533 18.7575 19.496 18.3861 19.7572C18.0146 20.0184 17.7603 20.3819 17.6664 20.7858C17.5726 21.1897 17.6451 21.609 17.8715 21.9722C18.0979 22.3355 18.4643 22.6202 18.9082 22.7778C19.352 22.9355 19.846 22.9563 20.3058 22.8368C20.7655 22.7173 21.1628 22.4648 21.4297 22.1224C21.6967 21.78 21.8169 21.3688 21.7698 20.959C21.7227 20.5491 21.5113 20.166 21.1716 19.8748C20.9793 19.709 20.7505 19.5775 20.4985 19.488C20.2466 19.3985 19.9764 19.3528 19.7037 19.3534ZM20.4376 21.762C20.2399 21.9239 19.9771 22.0142 19.7037 22.0142C19.4303 22.0142 19.1674 21.9239 18.9697 21.762C18.8245 21.6376 18.7256 21.4791 18.6856 21.3065C18.6455 21.1339 18.666 20.955 18.7446 20.7924C18.8231 20.6298 18.9562 20.4908 19.1269 20.393C19.2976 20.2952 19.4983 20.243 19.7037 20.243C19.909 20.243 20.1097 20.2952 20.2804 20.393C20.4511 20.4908 20.5842 20.6298 20.6627 20.7924C20.7413 20.955 20.7618 21.1339 20.7218 21.3065C20.6817 21.4791 20.5828 21.6376 20.4376 21.762H20.4376Z" fill="#1E2833"/>
</svg>
