<svg width="40" height="40" viewBox="0 0 40 40" fill="none" xmlns="http://www.w3.org/2000/svg">
<path d="M10.3196 15.2429C10.7756 13.9101 12.278 13.0413 13.9012 13.0413C14.9624 13.0413 15.9388 13.4021 16.6276 14.0053C17.1524 14.4645 16.4636 15.2513 15.9392 14.7921C15.458 14.3709 14.732 14.0869 13.9004 14.0869C12.722 14.0869 11.8148 14.6373 11.4296 15.3197C13.9552 15.4749 16.0608 15.4817 16.4944 15.4817C17.1016 15.4817 20.9828 15.4677 24.7124 15.0533C26.5256 14.8513 28.2464 14.5597 29.518 14.1493C29.176 13.4325 28.3792 13.0009 27.5348 13.2145C26.8596 13.3853 26.6028 12.3717 27.278 12.2005C27.4632 12.1537 27.6464 12.1265 27.8264 12.1173C27.7976 10.6293 26.5812 9.43207 25.0852 9.43207C23.962 9.43207 23.144 10.5037 22.6784 9.91607C22.1752 9.28207 21.4004 8.87687 20.5296 8.87687C19.8652 8.87687 19.8396 8.63967 19.8396 8.07647C19.8396 6.54047 18.584 5.33527 17.098 5.33527C15.612 5.33527 14.4012 6.52607 14.358 7.99367C14.3564 8.03527 14.3532 8.07327 14.3472 8.10847C15.47 8.04247 16.6308 8.59127 17.2268 9.72847C17.5516 10.3461 16.6252 10.8317 16.3016 10.2141C15.5448 8.77167 13.4076 8.76607 12.7496 10.3461C12.4812 10.9901 11.516 10.5881 11.7836 9.94447C12.0932 9.20007 12.6208 8.68447 13.2344 8.39207C13.0412 8.34927 12.8592 8.30727 12.724 8.30727C11.0052 8.30727 10.5664 9.52767 10.1324 10.1053C10.5496 10.1781 10.9552 10.3401 11.3208 10.5961C11.892 10.9961 11.292 11.8525 10.7216 11.4525C9.73356 10.7609 8.28556 11.1313 7.79756 12.3053C7.52956 12.9489 6.56356 12.5469 6.83116 11.9037C7.23956 10.9217 8.07996 10.3073 9.00636 10.1205C8.60956 9.96287 8.17676 9.87647 7.72356 9.87647C5.92436 9.87647 4.42516 11.2549 4.26116 13.0293C4.19716 13.7233 3.15556 13.6273 3.21956 12.9333C3.24756 12.6261 3.30716 12.3285 3.39436 12.0425C2.89996 12.2021 2.48396 12.3801 2.16956 12.5785C2.06956 12.6425 1.97956 12.7085 1.90116 12.7761C1.73076 12.9237 1.69516 13.0309 1.69516 13.0949C1.69516 13.1757 1.87316 13.6149 3.35116 14.1109C4.63316 14.5413 6.40476 14.8445 8.27516 15.0529C8.95956 15.1285 9.64756 15.1913 10.3196 15.2429ZM20.8812 7.84647C21.7708 7.92807 22.57 8.31687 23.1728 8.90487C23.7344 8.57527 24.3892 8.38607 25.0864 8.38607C26.6832 8.38607 28.0492 9.37447 28.6064 10.7729C30.8128 11.2945 32.4212 12.0745 32.4212 13.2425C32.4212 13.8213 32.026 14.3049 31.3588 14.7093C30.464 19.7125 28.0048 24.2369 23.934 26.7209V28.7229C23.934 29.5785 23.0484 30.2065 21.8632 30.6261C20.2548 31.2557 18.4488 31.6025 16.44 31.6025C14.3492 31.6025 12.3648 31.1273 10.5624 30.2993C9.74676 29.9065 9.20036 29.3909 9.20036 28.7229V26.7469C5.21436 24.3837 2.30156 20.0573 1.45876 14.5993C0.897159 14.2181 0.568359 13.7697 0.568359 13.2429C0.568359 12.7141 0.873559 12.3229 1.16356 12.0709C1.72836 11.5809 2.71836 11.1921 3.93676 10.8845C4.74676 9.64607 6.14756 8.83087 7.72596 8.83087C8.33196 8.83087 8.91036 8.95047 9.43916 9.16687C10.0916 8.02887 11.3184 7.26127 12.726 7.26127C12.9512 7.26127 13.1736 7.28127 13.3892 7.31967C13.744 5.57487 15.2972 4.28967 17.1 4.28967C19.0692 4.28927 20.7592 5.82447 20.8812 7.84647ZM28.8592 11.8489C28.868 11.9557 28.8732 12.0637 28.8732 12.1729C28.8732 12.2057 28.8724 12.2365 28.8708 12.2661C29.5864 12.5165 30.178 13.0589 30.4936 13.7661C31.188 13.4237 31.2904 13.1565 31.2904 13.0949C31.2904 13.0433 31.2176 12.8449 30.7788 12.5789C30.5316 12.4289 30.1684 12.2577 29.6364 12.0793C29.3936 11.9981 29.1344 11.9213 28.8592 11.8489ZM16.4412 30.3477C18.3012 30.3477 19.9716 30.0193 21.4256 29.4501C21.9444 29.2661 22.3216 29.0601 22.5272 28.8845C22.624 28.8013 22.6672 28.7453 22.6796 28.7229L22.6936 27.3909C20.8852 28.2441 18.802 28.7261 16.4412 28.7261C14.3224 28.7261 12.3052 28.2669 10.4732 27.4173L10.5032 28.7697C10.5928 28.8685 10.7764 29.0101 11.0976 29.1653C12.7448 29.9193 14.5476 30.3477 16.4412 30.3477ZM30.0248 15.3089C26.0368 16.6845 18.3008 16.7581 16.4964 16.7581C14.6724 16.7581 6.80476 16.6829 2.85276 15.2689C4.34156 22.6745 9.93236 27.4705 16.4416 27.4705C23.1936 27.4709 28.5628 22.6977 30.0248 15.3089ZM19.9112 13.3973C21.0792 11.5781 23.6384 11.7917 24.6512 13.5101C25.0056 14.1109 24.1036 14.6417 23.75 14.0405C23.1176 12.9661 21.5244 12.8217 20.792 13.9625C20.416 14.5493 19.536 13.9845 19.9112 13.3973ZM15.93 37.1509L32.5124 21.6989C33.5544 20.7737 34.9428 22.3385 33.9012 23.2633L16.666 38.0109C15.6232 38.9369 14.8872 38.0757 15.93 37.1509ZM19.5204 35.7653L37.6276 22.1317C38.7612 21.3201 39.9792 23.0213 38.8448 23.8325L20.1612 36.6985C19.0276 37.5093 18.386 36.5765 19.5204 35.7653Z" fill="#1E2833"/>
</svg>
