<svg width="14" height="18" viewBox="0 0 14 18" fill="none" xmlns="http://www.w3.org/2000/svg">
<path d="M6 2H2C0.895386 2 0 2.89543 0 4V16C0 17.1046 0.895386 18 2 18H10C11.1046 18 12 17.1046 12 16V8H11V16C11 16.5523 10.5522 17 10 17H2C1.44775 17 1 16.5523 1 16V4C1 3.44772 1.44775 3 2 3H6V2Z" fill="#1E2833"/>
<path d="M6 14C5.44775 14 5 14.4477 5 15C5 15.5523 5.44775 16 6 16C6.55225 16 7 15.5523 7 15C7 14.4477 6.55225 14 6 14Z" fill="#1E2833"/>
<path d="M8 6V1H9V4.5L13.5 0L14 0.5L9.5 5H13V6H8Z" fill="#1E2833"/>
</svg>
