<svg width="24" height="24" viewBox="0 0 24 24" fill="none" xmlns="http://www.w3.org/2000/svg">
<path d="M7.77901 10.7579C8.34498 9.73445 9.03077 8.79835 9.69402 8.04768C9.70971 8.11422 9.72647 8.18275 9.74432 8.2528C9.90608 8.8877 10.1745 9.71842 10.5965 10.2952L11.4521 11.4648L11.4997 10.0164C11.5388 8.82916 11.8643 7.48852 12.3714 6.4096C12.6246 5.87108 12.9151 5.41456 13.223 5.07827C13.2324 5.06802 13.2418 5.05791 13.2512 5.04793C13.0958 6.47059 13.512 7.96781 14.6015 9.31306C14.7671 9.52115 14.9554 9.73839 15.1545 9.9682C16.1823 11.1542 17.5 12.6748 17.5 15C17.5 16.3056 16.8042 17.4207 15.7434 18.2269C14.6784 19.0363 13.2845 19.5 12 19.5C10.7263 19.5 9.33212 19.0366 8.26394 18.2266C7.19981 17.4197 6.5 16.3045 6.5 15C6.5 13.6167 7.02052 12.1295 7.77901 10.7579Z" />
</svg>
