<svg width="48" height="48" viewBox="0 0 48 48" fill="none" xmlns="http://www.w3.org/2000/svg">
<rect x="14.0005" y="32" width="4" height="4" rx="2" fill="#1E2833"/>
<rect x="25" y="32" width="4" height="4" rx="2" fill="#1E2833"/>
<path fill-rule="evenodd" clip-rule="evenodd" d="M29 29H14C13.5 29 13.1132 28.4222 13.0001 28L10 18L10 17C10 16.5 10.3983 16 11 16H32C32.5523 16 33 16.4477 33 17C33 17.145 33 18 33 18L30.0001 28C29.8933 28.3983 29.5 29 29 29ZM31 18H12L14.5001 27H28.5001L31 18Z" fill="#1E2833"/>
<rect x="33" y="12" width="5" height="2" rx="1" fill="#1E2833"/>
<path d="M32.1872 18.975C31.4644 19.1283 30.8225 18.5511 31.0447 17.9476L33.0121 12.6054C33.1447 12.2452 33.5378 12 33.9825 12C34.6765 12 35.1665 12.5769 34.947 13.1356L32.8612 18.4454C32.758 18.7081 32.5038 18.9078 32.1872 18.975Z" fill="#1E2833"/>
</svg>
