<svg width="26" height="16" viewBox="0 0 26 16" fill="none" xmlns="http://www.w3.org/2000/svg">
<path d="M26 9C26 8.5 25.5 8 25 8L22 7L18 3H13V1C13 0.303579 12.6936 0 12 0H2C1.49996 0 0.999961 0.5 0.999961 1V3H0V4H8.99996V3H2V1H12V3H11V4H12V12H13V4H17.5L21.5 8L25 9V13H23C23 12 22 11 20.5 11C19 11 18 12 18 13.5C18 15 19 16 20.5 16C22 16 23 15 23 14H25C25.5 14 26 13.5 26 13V9ZM20.5 15C19.5 15 19 14.5 19 13.5C19 12.5 19.5 12 20.5 12C21.5 12 22 12.5 22 13.5C22 14.5 21.5 15 20.5 15Z" fill="#1E2833"/>
<path d="M17 13H8C8 12 7 11 5.5 11C4 11 3 12 3 13H2V11H1V13C1 13.5 1.5 14 2 14H3C3 15 4 16 5.5 16C7 16 8 15 8 14H17V13ZM5.5 15C4.55011 15 4 14.4454 4 13.5C4 12.5546 4.55011 12 5.5 12C6.4499 12 7 12.5546 7 13.5C7 14.4454 6.4499 15 5.5 15Z" fill="#1E2833"/>
<path d="M11 7V6H3V7H11Z" fill="#1E2833"/>
<path d="M7 10V9H2V5H1V9H0V10H7Z" fill="#1E2833"/>
<path d="M19 8V7L17 5H14V8H19ZM15 6H17L18 7H15V6Z" fill="#1E2833"/>
</svg>
