<svg width="48" height="48" viewBox="0 0 48 48" fill="none" xmlns="http://www.w3.org/2000/svg">
<path d="M18.8047 13C16.4688 13 14.4771 14.0301 13.119 15.5792C11.7608 17.1284 11 19.1882 11 21.3398C11 24.9214 12.5413 27.5813 14.9215 29.7605C17.3017 31.9396 20.4895 33.7158 24.0014 35.8625C24.1501 35.9523 24.3232 36 24.5 36C24.6768 36 24.8499 35.9523 24.9986 35.8625C28.5105 33.7158 31.6983 31.9396 34.0785 29.7605C36.4587 27.5813 38 24.9214 38 21.3398C38 19.1882 37.2392 17.1284 35.881 15.5792C34.5229 14.0301 32.5312 13 30.1953 13C27.6921 13 25.7097 14.0368 24.5 14.9681C23.2903 14.0368 21.3079 13 18.8047 13V13ZM18.8047 14.7255C21.0995 14.7255 23.1341 16.0284 23.8384 16.7026C23.9243 16.7857 24.0271 16.8518 24.1407 16.897C24.2544 16.9422 24.3766 16.9654 24.5 16.9654C24.6234 16.9654 24.7456 16.9422 24.8593 16.897C24.9729 16.8518 25.0757 16.7857 25.1616 16.7026C25.8659 16.0284 27.9005 14.7255 30.1953 14.7255C31.9638 14.7255 33.4018 15.4663 34.462 16.6756C35.5222 17.8849 36.1591 19.5711 36.1591 21.3398C36.1591 24.4784 34.9391 26.556 32.7937 28.5203C30.757 30.385 27.8218 32.0903 24.5 34.1101C21.1782 32.0903 18.243 30.385 16.2063 28.5203C14.0609 26.556 12.8409 24.4784 12.8409 21.3398C12.8409 19.5711 13.4778 17.8849 14.538 16.6756C15.5982 15.4663 17.0362 14.7255 18.8047 14.7255Z" />
</svg>
