<svg width="48" height="48" viewBox="0 0 48 48" fill="none" xmlns="http://www.w3.org/2000/svg">
<path d="M30.0582 14L30.0578 14C28.1588 14.0013 26.441 14.7544 25.191 15.9694L24.4961 16.6449L23.7991 15.9715C22.5461 14.7607 20.8267 14.0115 18.9248 14.0138L18.9246 14.0138C15.0809 14.0178 11.9969 17.0831 12 20.8233L30.0582 14ZM30.0582 14C33.9042 13.9957 36.9952 17.0516 37 20.7914L37 20.7916M30.0582 14L37 20.7916M37 20.7916C37.0066 25.2618 33.9559 28.8048 30.6598 31.3119C29.0326 32.5496 27.3991 33.4928 26.1694 34.127C25.5558 34.4435 25.046 34.6814 24.6921 34.8392C24.629 34.8673 24.5709 34.8929 24.5181 34.9159M37 20.7916L24.5181 34.9159M24.5181 34.9159C24.4653 34.893 24.4072 34.8676 24.3441 34.8396C23.9898 34.6827 23.4794 34.4459 22.8651 34.1309C21.6339 33.4996 19.9981 32.5604 18.3679 31.3267C15.0656 28.8277 12.0059 25.2926 12 20.8237L24.5181 34.9159ZM24.5194 36C24.5194 36 38.0146 30.6909 38 20.7901L24.5194 36Z" stroke="#1E2833" stroke-width="2"/>
</svg>
