<svg width="24" height="24" viewBox="0 0 24 24" fill="none" xmlns="http://www.w3.org/2000/svg">
<path d="M16.1172 4.74154L16.1169 4.74154C14.7099 4.74247 13.4375 5.2993 12.5118 6.19709L11.9971 6.69636L11.4809 6.19862C10.5529 5.30392 9.27932 4.75006 7.8702 4.75173L7.87009 4.75173C5.02181 4.75471 2.73926 7.02079 2.74154 9.78243L16.1172 4.74154ZM16.1172 4.74154C18.9671 4.73837 21.2549 6.99753 21.2585 9.75885V9.75899M16.1172 4.74154L21.2585 9.75899M21.2585 9.75899C21.2633 13.0612 19.0047 15.6792 16.5629 17.5325C15.3577 18.4473 14.1477 19.1444 13.2368 19.6132C12.7823 19.8471 12.4047 20.0229 12.1425 20.1396C12.0957 20.1604 12.0526 20.1793 12.0134 20.1963C11.9742 20.1794 11.9311 20.1606 11.8843 20.1399C11.6218 20.0239 11.2438 19.8489 10.7887 19.6161C9.87673 19.1495 8.66506 18.4553 7.45754 17.5435C5.01119 15.6962 2.74587 13.0839 2.74154 9.78272L21.2585 9.75899Z" stroke-width="1.48307"/>
</svg>
