<svg width="12" height="16" viewBox="0 0 12 16" fill="none" xmlns="http://www.w3.org/2000/svg">
<path d="M11.5 6C11.5 6.70334 11.173 7.65328 10.6179 8.73164C10.0712 9.79385 9.33676 10.918 8.59407 11.9507C7.85268 12.9816 7.11022 13.9116 6.55255 14.5844C6.33678 14.8447 6.14898 15.0662 6 15.2396C5.85102 15.0662 5.66322 14.8447 5.44745 14.5844C4.88978 13.9116 4.14732 12.9816 3.40593 11.9507C2.66324 10.918 1.9288 9.79385 1.38207 8.73164C0.827012 7.65328 0.5 6.70334 0.5 6C0.5 2.96243 2.96243 0.5 6 0.5C9.03757 0.5 11.5 2.96243 11.5 6Z"/>
</svg>
