<svg width="220" height="59" viewBox="0 0 220 59" fill="none" xmlns="http://www.w3.org/2000/svg">
<path d="M7.6583 48.6568C9.2201 48.6568 10.412 48.981 11.234 49.6295C12.0651 50.278 12.4807 51.205 12.4807 52.4106C12.4807 53.6162 12.0651 54.5432 11.234 55.1917C10.412 55.8402 9.2201 56.1644 7.6583 56.1644H7.2062V58.74H5.9184V56.1644H5.4526C3.89993 56.1644 2.70803 55.8402 1.8769 55.1917C1.0549 54.5432 0.6439 53.6162 0.6439 52.4106C0.6439 51.205 1.0549 50.278 1.8769 49.6295C2.70803 48.981 3.89993 48.6568 5.4526 48.6568H5.9184V45.9168H7.2062V48.6568H7.6583ZM5.9184 55.1643V49.6569H5.4937C4.3155 49.6569 3.425 49.8944 2.8222 50.3693C2.2194 50.8442 1.918 51.5247 1.918 52.4106C1.918 53.2965 2.2194 53.977 2.8222 54.4519C3.425 54.9268 4.3155 55.1643 5.4937 55.1643H5.9184ZM7.6309 55.1643C8.8091 55.1643 9.6996 54.9268 10.3024 54.4519C10.9052 53.977 11.2066 53.2965 11.2066 52.4106C11.2066 51.5247 10.9052 50.8442 10.3024 50.3693C9.6996 49.8944 8.8091 49.6569 7.6309 49.6569H7.2062V55.1643H7.6309ZM13.7412 52.4106C13.7412 51.6343 13.933 50.963 14.3166 50.3967C14.7002 49.8304 15.2391 49.4012 15.9332 49.1089C16.6365 48.8075 17.4493 48.6568 18.3718 48.6568C19.2943 48.6568 20.1026 48.8075 20.7967 49.1089C21.5 49.4012 22.0434 49.8304 22.427 50.3967C22.8106 50.963 23.0024 51.6343 23.0024 52.4106C23.0024 53.1869 22.8106 53.8582 22.427 54.4245C22.0434 54.9908 21.5 55.4246 20.7967 55.726C20.1026 56.0183 19.2943 56.1644 18.3718 56.1644C17.4493 56.1644 16.6365 56.0183 15.9332 55.726C15.2391 55.4246 14.7002 54.9908 14.3166 54.4245C13.933 53.8582 13.7412 53.1869 13.7412 52.4106ZM15.029 52.4106C15.029 52.9586 15.166 53.4427 15.44 53.8628C15.714 54.2738 16.1022 54.5935 16.6045 54.8218C17.1068 55.0501 17.6959 55.1643 18.3718 55.1643C19.0477 55.1643 19.6368 55.0501 20.1391 54.8218C20.6506 54.5935 21.0387 54.2738 21.3036 53.8628C21.5776 53.4427 21.7146 52.9586 21.7146 52.4106C21.7146 51.8626 21.5776 51.3831 21.3036 50.9721C21.0387 50.552 20.6506 50.2277 20.1391 49.9994C19.6368 49.7711 19.0477 49.6569 18.3718 49.6569C17.6959 49.6569 17.1068 49.7711 16.6045 49.9994C16.1022 50.2277 15.714 50.552 15.44 50.9721C15.166 51.3831 15.029 51.8626 15.029 52.4106ZM29.5592 48.6568C30.3904 48.6568 31.121 48.8075 31.7512 49.1089C32.3814 49.4012 32.8701 49.8304 33.2171 50.3967C33.5733 50.963 33.7514 51.6343 33.7514 52.4106C33.7514 53.1869 33.5733 53.8582 33.2171 54.4245C32.8701 54.9908 32.3814 55.4246 31.7512 55.726C31.121 56.0183 30.3904 56.1644 29.5592 56.1644C28.7555 56.1644 28.0477 56.0228 27.4357 55.7397C26.8238 55.4474 26.3534 55.0319 26.0246 54.493V58.74H24.7231V48.8212H25.915V50.5337C26.2164 49.9218 26.6777 49.456 27.2987 49.1363C27.9289 48.8166 28.6824 48.6568 29.5592 48.6568ZM29.2167 55.1643C29.8743 55.1643 30.4452 55.0501 30.9292 54.8218C31.4224 54.5935 31.8015 54.2738 32.0663 53.8628C32.3312 53.4427 32.4636 52.9586 32.4636 52.4106C32.4636 51.8626 32.3312 51.3831 32.0663 50.9721C31.8015 50.552 31.4224 50.2277 30.9292 49.9994C30.4452 49.7711 29.8743 49.6569 29.2167 49.6569C28.2212 49.6569 27.4312 49.9081 26.8466 50.4104C26.2621 50.9127 25.9698 51.5795 25.9698 52.4106C25.9698 53.2417 26.2621 53.9085 26.8466 54.4108C27.4312 54.9131 28.2212 55.1643 29.2167 55.1643ZM47.1796 48.8212V56H45.9192V49.5747L42.2065 56H40.4529L36.7402 49.5884V56H35.4798V48.8212H37.6718L41.3434 55.3424L45.0013 48.8212H47.1796ZM58.094 48.8212L54.1073 56.7946C53.8424 57.3517 53.5867 57.7764 53.3401 58.0687C53.1026 58.361 52.8012 58.571 52.4359 58.6989C52.0797 58.8359 51.6002 58.9044 50.9974 58.9044C50.6047 58.9044 50.2667 58.8816 49.9836 58.8359V57.8358C50.285 57.8632 50.5955 57.8769 50.9152 57.8769C51.4449 57.8769 51.8422 57.7901 52.1071 57.6166C52.3811 57.4522 52.6414 57.1234 52.888 56.6302L53.1894 56H52.6414L48.5862 48.8212H50.0384L53.6278 55.4794L56.6692 48.8212H58.094ZM66.399 48.8212V56H65.0975V49.8898H60.7957L60.7135 50.931C60.613 52.3193 60.5034 53.3422 60.3847 53.9998C60.2751 54.6483 60.0604 55.1597 59.7408 55.5342C59.4211 55.9087 58.9279 56.0959 58.2612 56.0959C58.1424 56.0959 57.9004 56.0776 57.5351 56.0411V54.9862C57.736 55.0045 57.8867 55.0136 57.9872 55.0136C58.4256 55.0136 58.7498 54.8172 58.9599 54.4245C59.1699 54.0318 59.3115 53.4472 59.3846 52.6709C59.4668 51.8946 59.5535 50.6113 59.6449 48.8212H66.399ZM72.6204 48.6568C73.9082 48.6568 74.8809 48.9034 75.5385 49.3966C76.2052 49.8807 76.5386 50.5885 76.5386 51.5201V56H75.3467V54.356C75.027 54.9223 74.5247 55.3652 73.8397 55.6849C73.1638 56.0046 72.3464 56.1644 71.3874 56.1644C70.2914 56.1644 69.4739 55.9772 68.9351 55.6027C68.4053 55.2191 68.1405 54.7213 68.1405 54.1094C68.1405 53.4427 68.4601 52.9358 69.0995 52.5887C69.7388 52.2416 70.7161 52.0224 72.0313 51.9311L75.2371 51.7256V51.2598C75.2371 50.7757 75.0179 50.3739 74.5795 50.0542C74.1411 49.7345 73.488 49.5747 72.6204 49.5747C71.8806 49.5747 71.2686 49.6889 70.7846 49.9172C70.3005 50.1455 70.0037 50.4789 69.8941 50.9173H68.6611C68.7524 50.1501 69.1543 49.5838 69.8667 49.2185C70.5882 48.844 71.5061 48.6568 72.6204 48.6568ZM71.7025 55.2465C72.4331 55.2465 73.0633 55.146 73.5931 54.9451C74.1319 54.7442 74.5384 54.4702 74.8124 54.1231C75.0955 53.7669 75.2371 53.365 75.2371 52.9175V52.5339L72.182 52.7257C71.2595 52.7896 70.5699 52.9312 70.1133 53.1504C69.6566 53.3605 69.4283 53.6619 69.4283 54.0546C69.4283 54.4108 69.6155 54.6985 69.99 54.9177C70.3736 55.1369 70.9444 55.2465 71.7025 55.2465ZM88.741 52.2873C89.5539 52.3604 90.1567 52.5385 90.5494 52.8216C90.9513 53.1047 91.1522 53.5157 91.1522 54.0546C91.1522 54.6209 90.9056 55.0867 90.4124 55.452C89.9192 55.8173 89.0881 56 87.919 56H83.0418V48.8212H87.6998C88.7775 48.8212 89.5676 48.9856 90.0699 49.3144C90.5814 49.6432 90.8371 50.077 90.8371 50.6159C90.8371 51.0452 90.6727 51.4059 90.3439 51.6982C90.0151 51.9905 89.4808 52.1868 88.741 52.2873ZM84.3433 51.9174H87.5354C88.878 51.9174 89.5493 51.5566 89.5493 50.8351C89.5493 50.1136 88.846 49.7528 87.4395 49.7528H84.3433V51.9174ZM87.6861 55.0684C88.4807 55.0684 89.0378 54.9679 89.3575 54.767C89.6863 54.5569 89.8507 54.2692 89.8507 53.9039C89.8507 53.5203 89.6772 53.2326 89.3301 53.0408C88.983 52.849 88.3985 52.7531 87.5765 52.7531H84.3433V55.0684H87.6861ZM99.7801 56L95.9167 52.8764H94.1768V56H92.8753V48.8212H94.1768V51.8626H95.9441L99.6705 48.8212H101.342L96.9442 52.2599L101.575 56H99.7801ZM111.569 48.8212L107.583 56.7946C107.318 57.3517 107.062 57.7764 106.816 58.0687C106.578 58.361 106.277 58.571 105.911 58.6989C105.555 58.8359 105.076 58.9044 104.473 58.9044C104.08 58.9044 103.742 58.8816 103.459 58.8359V57.8358C103.76 57.8632 104.071 57.8769 104.391 57.8769C104.92 57.8769 105.318 57.7901 105.583 57.6166C105.857 57.4522 106.117 57.1234 106.363 56.6302L106.665 56H106.117L102.062 48.8212H103.514L107.103 55.4794L110.145 48.8212H111.569ZM120.912 53.5477C120.729 54.3788 120.254 55.0227 119.487 55.4794C118.729 55.9361 117.788 56.1644 116.665 56.1644C115.258 56.1644 114.144 55.8402 113.322 55.1917C112.509 54.5341 112.103 53.6071 112.103 52.4106C112.103 51.2141 112.509 50.2917 113.322 49.6432C114.135 48.9856 115.236 48.6568 116.624 48.6568C117.711 48.6568 118.638 48.876 119.405 49.3144C120.181 49.7528 120.647 50.3784 120.802 51.1913L119.569 51.2598C119.414 50.7392 119.067 50.3419 118.528 50.0679C117.989 49.7939 117.355 49.6569 116.624 49.6569C115.656 49.6569 114.875 49.9035 114.281 50.3967C113.697 50.8899 113.404 51.5612 113.404 52.4106C113.404 53.26 113.701 53.9313 114.295 54.4245C114.889 54.9177 115.679 55.1643 116.665 55.1643C117.414 55.1643 118.053 55.0182 118.583 54.7259C119.122 54.4336 119.474 54.0181 119.638 53.4792L120.912 53.5477ZM122.496 48.8212H123.798V51.8078H129.511V48.8212H130.812V56H129.511V52.8764H123.798V56H122.496V48.8212ZM132.519 52.4106C132.519 51.6343 132.711 50.963 133.095 50.3967C133.478 49.8304 134.017 49.4012 134.711 49.1089C135.414 48.8075 136.227 48.6568 137.15 48.6568C138.072 48.6568 138.881 48.8075 139.575 49.1089C140.278 49.4012 140.821 49.8304 141.205 50.3967C141.589 50.963 141.78 51.6343 141.78 52.4106C141.78 53.1869 141.589 53.8582 141.205 54.4245C140.821 54.9908 140.278 55.4246 139.575 55.726C138.881 56.0183 138.072 56.1644 137.15 56.1644C136.227 56.1644 135.414 56.0183 134.711 55.726C134.017 55.4246 133.478 54.9908 133.095 54.4245C132.711 53.8582 132.519 53.1869 132.519 52.4106ZM133.807 52.4106C133.807 52.9586 133.944 53.4427 134.218 53.8628C134.492 54.2738 134.88 54.5935 135.382 54.8218C135.885 55.0501 136.474 55.1643 137.15 55.1643C137.826 55.1643 138.415 55.0501 138.917 54.8218C139.429 54.5935 139.817 54.2738 140.082 53.8628C140.356 53.4427 140.493 52.9586 140.493 52.4106C140.493 51.8626 140.356 51.3831 140.082 50.9721C139.817 50.552 139.429 50.2277 138.917 49.9994C138.415 49.7711 137.826 49.6569 137.15 49.6569C136.474 49.6569 135.885 49.7711 135.382 49.9994C134.88 50.2277 134.492 50.552 134.218 50.9721C133.944 51.3831 133.807 51.8626 133.807 52.4106ZM147.748 47.8759C146.935 47.8759 146.314 47.7069 145.885 47.369C145.465 47.0311 145.236 46.579 145.2 46.0127H146.118C146.163 46.3141 146.31 46.5744 146.556 46.7936C146.803 47.0128 147.2 47.1224 147.748 47.1224C148.296 47.1224 148.693 47.0128 148.94 46.7936C149.187 46.5744 149.333 46.3141 149.378 46.0127H150.31C150.283 46.579 150.054 47.0311 149.625 47.369C149.196 47.7069 148.57 47.8759 147.748 47.8759ZM151.995 48.8212V56H150.735V49.6706L145.419 56H143.501V48.8212H144.761V55.1506L150.077 48.8212H151.995ZM163.429 48.6568C164.26 48.6568 164.99 48.8075 165.621 49.1089C166.251 49.4012 166.739 49.8304 167.086 50.3967C167.443 50.963 167.621 51.6343 167.621 52.4106C167.621 53.1869 167.443 53.8582 167.086 54.4245C166.739 54.9908 166.251 55.4246 165.621 55.726C164.99 56.0183 164.26 56.1644 163.429 56.1644C162.625 56.1644 161.917 56.0228 161.305 55.7397C160.693 55.4474 160.223 55.0319 159.894 54.493V58.74H158.592V48.8212H159.784V50.5337C160.086 49.9218 160.547 49.456 161.168 49.1363C161.798 48.8166 162.552 48.6568 163.429 48.6568ZM163.086 55.1643C163.744 55.1643 164.315 55.0501 164.799 54.8218C165.292 54.5935 165.671 54.2738 165.936 53.8628C166.201 53.4427 166.333 52.9586 166.333 52.4106C166.333 51.8626 166.201 51.3831 165.936 50.9721C165.671 50.552 165.292 50.2277 164.799 49.9994C164.315 49.7711 163.744 49.6569 163.086 49.6569C162.091 49.6569 161.301 49.9081 160.716 50.4104C160.131 50.9127 159.839 51.5795 159.839 52.4106C159.839 53.2417 160.131 53.9085 160.716 54.4108C161.301 54.9131 162.091 55.1643 163.086 55.1643ZM173.651 51.5338C174.838 51.5338 175.701 51.7256 176.24 52.1092C176.779 52.4928 177.049 53.0454 177.049 53.7669C177.049 54.4884 176.779 55.041 176.24 55.4246C175.701 55.8082 174.838 56 173.651 56H169.993H169.349V48.8212H170.651V51.5338H173.651ZM179.912 48.8212V56H178.61V48.8212H179.912ZM173.541 55.041C174.327 55.041 174.888 54.9314 175.226 54.7122C175.573 54.493 175.747 54.1733 175.747 53.7532C175.747 53.3331 175.573 53.0134 175.226 52.7942C174.888 52.575 174.327 52.4654 173.541 52.4654H170.651V55.041H173.541ZM186.565 49.0404C187.442 49.0404 188.214 49.1865 188.881 49.4788C189.547 49.7619 190.063 50.1729 190.429 50.7118C190.803 51.2507 190.991 51.8809 190.991 52.6024C190.991 53.3331 190.803 53.9678 190.429 54.5067C190.054 55.0364 189.515 55.4474 188.812 55.7397C188.118 56.0228 187.301 56.1644 186.36 56.1644C183.273 56.1644 181.729 54.6117 181.729 51.5064C181.729 50.4378 181.862 49.5519 182.127 48.8486C182.391 48.1453 182.816 47.5882 183.401 47.1772C183.994 46.7662 184.789 46.4876 185.785 46.3415C186.314 46.2593 186.903 46.1954 187.552 46.1497C187.689 46.1314 187.876 46.1132 188.114 46.0949C188.853 46.0218 189.479 45.9077 189.99 45.7524V46.7662C189.579 46.9489 189.031 47.0722 188.346 47.1361C188.31 47.1361 187.977 47.1635 187.346 47.2183C187.264 47.2183 186.963 47.2411 186.442 47.2868C185.657 47.3599 185.013 47.5014 184.51 47.7115C184.017 47.9216 183.611 48.3006 183.291 48.8486C182.971 49.3875 182.771 50.1684 182.688 51.1913C182.953 50.5154 183.419 49.9903 184.086 49.6158C184.762 49.2322 185.588 49.0404 186.565 49.0404ZM186.36 55.1643C187.392 55.1643 188.205 54.936 188.799 54.4793C189.392 54.0135 189.689 53.3879 189.689 52.6024C189.689 51.8169 189.392 51.1959 188.799 50.7392C188.205 50.2734 187.392 50.0405 186.36 50.0405C185.319 50.0405 184.501 50.2688 183.908 50.7255C183.314 51.1822 183.017 51.8078 183.017 52.6024C183.017 53.397 183.314 54.0226 183.908 54.4793C184.501 54.936 185.319 55.1643 186.36 55.1643ZM197.01 51.5338C198.198 51.5338 199.061 51.7256 199.6 52.1092C200.139 52.4928 200.408 53.0454 200.408 53.7669C200.408 54.4884 200.139 55.041 199.6 55.4246C199.061 55.8082 198.198 56 197.01 56H193.353H192.709V48.8212H194.01V51.5338H197.01ZM203.271 48.8212V56H201.97V48.8212H203.271ZM196.901 55.041C197.686 55.041 198.248 54.9314 198.586 54.7122C198.933 54.493 199.107 54.1733 199.107 53.7532C199.107 53.3331 198.933 53.0134 198.586 52.7942C198.248 52.575 197.686 52.4654 196.901 52.4654H194.01V55.041H196.901Z" fill="#929292"/>
<path fill-rule="evenodd" clip-rule="evenodd" d="M188.135 8C190.65 8 192.5 8 196 10C199.5 12 205 20 205 20C205 20 200 32 188.135 32H186.748C184.211 32 182.029 31.813 180.202 31.439C178.396 31.0442 176.87 30.5351 175.623 29.9117C174.376 29.2675 173.365 28.5403 172.592 27.7299C171.839 26.9195 171.259 26.0883 170.85 25.2364C170.442 24.3636 170.173 23.5117 170.044 22.6805C170.044 22.6805 167.425 27.6083 164.962 28.7591C164.462 28.9929 164 28.5497 164 27.9974V11.8156C164 11.2633 164.462 10.8203 164.962 11.0559C167.425 12.2175 170.044 17.1948 170.044 17.1948C170.173 16.3429 170.442 15.5013 170.85 14.6701C171.259 13.8182 171.839 12.9974 172.592 12.2078C173.365 11.3974 174.376 10.6805 175.623 10.0571C176.87 9.43377 178.396 8.93507 180.202 8.56104C182.029 8.18701 184.211 8 186.748 8H188.135ZM193.5 20C194.881 20 196 18.8807 196 17.5C196 16.1193 194.881 15 193.5 15C192.119 15 191 16.1193 191 17.5C191 18.8807 192.119 20 193.5 20Z" fill="#F15526"/>
<path d="M127 32C126.448 32 126 31.5523 126 31V29.3369C126 28.7662 126.033 28.1532 126.099 27.498C126.165 26.8217 126.33 26.1347 126.595 25.4373C126.859 24.7398 127.245 24.0528 127.751 23.3765C128.258 22.679 128.963 22.0238 129.866 21.4108C130.769 20.7768 131.881 20.1955 133.203 19.6671C134.546 19.1387 136.165 18.6843 138.059 18.3038L143.808 17.1625C144.645 17.0145 145.306 16.8666 145.791 16.7186C146.275 16.5495 146.639 16.391 146.881 16.2431C147.123 16.074 147.278 15.9049 147.344 15.7358C147.41 15.5667 147.443 15.3871 147.443 15.1968C147.443 14.9643 147.377 14.7424 147.244 14.531C147.112 14.3197 146.826 14.1295 146.385 13.9604C145.945 13.7913 145.317 13.6645 144.502 13.5799C143.687 13.4742 142.608 13.4214 141.264 13.4214C139.722 13.4214 138.5 13.5376 137.597 13.7701C136.716 14.0026 136.044 14.2985 135.581 14.6579C135.43 14.7684 135.316 14.9501 135.23 15.1446C135.026 15.6084 134.618 16 134.111 16H127.704C127.111 16 126.654 15.4866 126.791 14.9093C126.928 14.3292 127.151 13.6113 127.5 13C128.226 11.7299 128.383 11.6129 129 11C129.617 10.3871 130.053 10.0819 131.088 9.61691C132.123 9.13078 133.39 8.73976 134.888 8.44386C136.407 8.14795 138.225 8 140.339 8H141.661C144.546 8 146.892 8.20079 148.698 8.60238C150.526 9.00396 151.947 9.54293 152.96 10.2193C153.974 10.8956 154.656 11.6777 155.009 12.5654C155.383 13.432 155.57 14.3303 155.57 15.2602V15.3236C155.57 16.2114 155.449 17.0251 155.207 17.7649C154.987 18.4835 154.535 19.1387 153.852 19.7305C153.17 20.3012 152.2 20.8085 150.945 21.2523C149.711 21.6962 148.092 22.0766 146.088 22.3937L139.348 23.4716C137.894 23.7252 136.738 23.9894 135.879 24.2642C135.02 24.539 134.37 24.8137 133.93 25.0885C133.41 25.3875 133.717 26 134.316 26H148C148.552 26 149 25.5523 149 25V24C149 23.4477 149.448 23 150 23H155C155.552 23 156 23.4477 156 24V31C156 31.5523 155.552 32 155 32H127Z" fill="#F15526"/>
<path d="M94 9C94 8.44772 93.5523 8 93 8H87C86.4477 8 86 8.44772 86 9V31C86 31.5523 86.4477 32 87 32H93C93.5523 32 94 31.5523 94 31V24C94 23.4477 94.4477 23 95 23H109C109.552 23 110 23.4477 110 24V31C110 31.5523 110.448 32 111 32H117C117.552 32 118 31.5523 118 31V9C118 8.44772 117.552 8 117 8H111C110.448 8 110 8.44772 110 9V16C110 16.5523 109.552 17 109 17H95C94.4477 17 94 16.5523 94 16V9Z" fill="#F15526"/>
<path d="M77.45 31.9961C75.3358 32.0607 73.2798 31.32 71.7245 29.9335C70.9041 29.285 70.5068 28.9981 69.7 28.9981C68.8289 28.9981 68.4558 29.323 67.6959 30.0579C66.8505 30.8762 65.6918 31.9961 63.5 31.9961C61.3082 31.9961 60.1495 30.8762 59.3041 30.0579C58.5442 29.323 58.1711 28.9981 57.3 28.9981C56.4932 28.9981 56.0959 29.285 55.2755 29.9335C53.7202 31.3201 51.6642 32.0607 49.55 31.9961C49.1389 31.9961 48.7447 31.8382 48.454 31.557C48.1633 31.2759 48 29.8946 48 29.4971C48 29.0995 48.1633 28.7182 48.454 28.4371C48.7447 28.156 49.1389 27.9981 49.55 27.9981C51.5573 27.9981 52.3715 27.3554 53.3145 26.6103C54.2234 25.893 55.3542 25 57.3 25C59.4918 25 60.6505 26.1199 61.4959 26.9382C62.2558 27.6731 62.6289 27.9981 63.5 27.9981C64.3711 27.9981 64.7442 27.6731 65.5041 26.9382C66.3495 26.1199 67.5082 25 69.7 25C71.6458 25 72.7766 25.893 73.6855 26.6103C74.6285 27.3554 75.4427 27.9981 77.45 27.9981C77.8611 27.9981 78.2553 28.156 78.546 28.4371C78.8367 28.7182 79 29.0995 79 29.4971C79 29.8946 78.8367 31.2759 78.546 31.557C78.2553 31.8382 77.8611 31.9961 77.45 31.9961Z" fill="#F15526"/>
<path d="M77.45 22.9961C75.3358 23.0607 73.2798 22.32 71.7245 20.9335C70.9041 20.285 70.5068 19.9981 69.7 19.9981C68.8289 19.9981 68.4558 20.323 67.6959 21.0579C66.8505 21.8762 65.6918 22.9961 63.5 22.9961C61.3082 22.9961 60.1495 21.8762 59.3041 21.0579C58.5442 20.323 58.1711 19.9981 57.3 19.9981C56.4932 19.9981 56.0959 20.285 55.2755 20.9335C53.7202 22.3201 51.6642 23.0607 49.55 22.9961C49.1389 22.9961 48.7447 22.8382 48.454 22.557C48.1633 22.2759 48 20.8946 48 20.4971C48 20.0995 48.1633 19.7182 48.454 19.4371C48.7447 19.156 49.1389 18.9981 49.55 18.9981C51.5573 18.9981 52.3715 18.3554 53.3145 17.6103C54.2234 16.893 55.3542 16 57.3 16C59.4918 16 60.6505 17.1199 61.4959 17.9382C62.2558 18.6731 62.6289 18.9981 63.5 18.9981C64.3711 18.9981 64.7442 18.6731 65.5041 17.9382C66.3495 17.1199 67.5082 16 69.7 16C71.6458 16 72.7766 16.893 73.6855 17.6103C74.6285 18.3554 75.4427 18.9981 77.45 18.9981C77.8611 18.9981 78.2553 19.156 78.546 19.4371C78.8367 19.7182 79 20.0995 79 20.4971C79 20.8946 78.8367 22.2759 78.546 22.557C78.2553 22.8382 77.8611 22.9961 77.45 22.9961Z" fill="#F15526"/>
<path d="M77.45 13.9961C75.3358 14.0607 73.2798 13.32 71.7245 11.9335C70.9041 11.285 70.5068 10.9981 69.7 10.9981C68.8289 10.9981 68.4558 11.323 67.6959 12.0579C66.8505 12.8762 65.6918 13.9961 63.5 13.9961C61.3082 13.9961 60.1495 12.8762 59.3041 12.0579C58.5442 11.323 58.1711 10.9981 57.3 10.9981C56.4932 10.9981 56.0959 11.285 55.2755 11.9335C53.7202 13.3201 51.6642 14.0607 49.55 13.9961C49.1389 13.9961 48.7447 13.8382 48.454 13.557C48.1633 13.2759 48 11.8946 48 11.4971C48 11.0995 48.1633 10.7182 48.454 10.4371C48.7447 10.156 49.1389 9.99805 49.55 9.99805C51.5573 9.99805 52.3715 9.35542 53.3145 8.61029C54.2234 7.89297 55.3542 7 57.3 7C59.4918 7 60.6505 8.11988 61.4959 8.9382C62.2558 9.67306 62.6289 9.99805 63.5 9.99805C64.3711 9.99805 64.7442 9.67306 65.5041 8.9382C66.3495 8.11988 67.5082 7 69.7 7C71.6458 7 72.7766 7.89297 73.6855 8.61029C74.6285 9.35542 75.4427 9.99805 77.45 9.99805C77.8611 9.99805 78.2553 10.156 78.546 10.4371C78.8367 10.7182 79 11.0995 79 11.4971C79 11.8946 78.8367 13.2759 78.546 13.557C78.2553 13.8382 77.8611 13.9961 77.45 13.9961Z" fill="#F15526"/>
<path d="M33 31C33 31.5523 33.4477 32 34 32H39C39.5523 32 40 31.5523 40 31V9C40 8.44772 39.5523 8 39 8H34C33.4477 8 33 8.44772 33 9V31Z" fill="#F15526"/>
<path d="M24 14C24.5523 14 25 13.5523 25 13V9C25 8.44772 24.5523 8 24 8H1C0.447715 8 0 8.44772 0 9V31C0 31.5523 0.447715 32 1 32H7C7.55228 32 8 31.5523 8 31V24C8 23.4477 8.44771 23 9 23H24C24.5523 23 25 22.5523 25 22V18C25 17.4477 24.5523 17 24 17H9C8.44771 17 8 16.5523 8 16V15C8 14.4477 8.44771 14 9 14H24Z" fill="#F15526"/>
</svg>
