<svg width="24" height="24" viewBox="0 0 24 24" fill="none" xmlns="http://www.w3.org/2000/svg">
<path d="M21.9997 8.00011C21.9997 7.44782 21.552 7.00009 20.9997 7.00009H18.9998C18.4475 7.00009 17.9998 6.55237 17.9998 6.00009V4.00001C17.9998 3.44772 17.552 3 16.9998 3.00001L6.99976 3.00008C6.44747 3.00009 5.99976 3.4478 5.99976 4.00008V6.00009C5.99976 6.55237 5.55205 7.00009 4.99976 7.00009H2.99951C2.44723 7.00009 1.99951 7.4478 1.99951 8.00009V16.0001C1.99951 16.5524 2.44723 17.0001 2.99951 17.0001H5.99976L5.99958 19.9999C5.99954 20.5522 6.44726 21 6.99957 21L16.9998 21.0001C17.552 21.0001 17.9998 20.5524 17.9998 20.0001V17.0001L20.9996 17C21.5518 17 21.9995 16.5523 21.9995 16L21.9997 8.00011ZM6.99976 4.00009H16.9998V7.00009H6.99976V4.00009ZM16.9998 20.0001H6.99976V14.0001H16.9998V20.0001ZM20.9998 16.0001H17.9998V14.0001C17.9998 13.4478 17.552 13.0001 16.9998 13.0001H6.99976C6.44748 13.0001 5.99976 13.4478 5.99976 14.0001V16.0001H2.99976V8.00009H20.9998V16.0001Z"/>
<path d="M18 12C18.5523 12 19 11.5523 19 11C19 10.4477 18.5523 10 18 10C17.4477 10 17 10.4477 17 11C17 11.5523 17.4477 12 18 12Z"/>
<path d="M14.4594 15H9.54058C9.24204 15 9 15.2238 9 15.5C9 15.7762 9.24204 16 9.54058 16H14.4594C14.758 16 15 15.7762 15 15.5C15 15.2239 14.758 15 14.4594 15Z"/>
<path d="M14.4594 18H9.54058C9.24204 18 9 18.2238 9 18.5C9 18.7762 9.24204 19 9.54058 19H14.4594C14.758 19 15 18.7762 15 18.5C15 18.2238 14.758 18 14.4594 18Z"/>
</svg>
