<svg width="64" height="64" viewBox="0 0 64 64" fill="none" xmlns="http://www.w3.org/2000/svg">
<path d="M10.6 40.1322L32 8.09912L53.4 40.1322H48.4L32 15.8347L15.6 40.1322H10.6Z" fill="#B7C6E7" fill-opacity="0.24"/>
<path d="M3.3 51.0413L10 41.1239H18.5L24 48.6611H18.9L23.2 54.9091L26.3 50.2479L19.7 41.1239H25.1L28.9 46.4793L32.5 41.1239H37.6L27.7 56H0L2.7 52.033H16.5L12.1 45.7851H17.1L16.4 44.7933H12.5L8.1 51.0413H3.3Z" fill="#B7C6E7" fill-opacity="0.24"/>
<path d="M38.8 41.1239H43.9L42 44H45V47.9669H39.3L36.6 52.033H45.2V56H28.8L38.8 41.1239Z" fill="#B7C6E7" fill-opacity="0.24"/>
<path d="M46.2 41.1239H54L56.5 44.7933H50.3V45.7851H57.1L59.7 49.6529H50.3V52.0328H61.3L64 56H46.2V41.1239Z" fill="#B7C6E7" fill-opacity="0.24"/>
<path d="M28.2527 21.8952L13.4209 43.461M20.4214 22.2012C23.3533 20.2118 37.9228 15.5106 39.1315 17.3041C41.1103 20.2403 26.1811 31.0951 21.7257 31.7222M31.3389 29.126C29.5525 30.4413 27.0953 33.8319 27.763 34.6617C28.1254 35.1121 31.9531 32.444 33.063 31.424M37.6478 27.2765C32.8434 30.6564 27.5197 37.9256 27.5197 39.5707C29.7958 38.6142 47.7729 33.7936 61.6667 35.2066M41.0219 27.2131C40.3302 28.0069 35.7785 33.4361 34.8494 35.0944M38.6217 29.3573C39.8794 28.0369 43.8736 26.038 44.5022 27.1383C44.9151 28.4518 39.0977 31.5278 38.1285 30.9242C39.2464 31.9538 42.588 33.4278 43.9923 33.9849M51.8671 26.6516C49.6316 25.3781 44.8843 31.6092 45.8826 33.1815C46.2128 33.7015 53.9068 28.8582 51.8671 26.6516Z" stroke="white" stroke-width="1.5" stroke-linejoin="round"/>
</svg>
