<svg width="24" height="24" viewBox="0 0 24 24" fill="none" xmlns="http://www.w3.org/2000/svg">
<path fill-rule="evenodd" clip-rule="evenodd" d="M11.5 19C15.0899 19 18 16.0899 18 12.5C18 8.91015 15.0899 6 11.5 6C7.91015 6 5 8.91015 5 12.5C5 16.0899 7.91015 19 11.5 19ZM11.5 20C15.6421 20 19 16.6421 19 12.5C19 8.35786 15.6421 5 11.5 5C7.35786 5 4 8.35786 4 12.5C4 16.6421 7.35786 20 11.5 20Z" />
<rect x="10" y="3" width="4" height="1" rx="0.5" />
<path d="M11 8H12V13L11 12.8633V8Z" />
<rect x="15.2969" y="14.1919" width="1" height="4.38403" transform="rotate(120 15.2969 14.1919)" />
</svg>
