<svg width="48" height="48" viewBox="0 0 48 48" fill="none" xmlns="http://www.w3.org/2000/svg">
<path d="M34 35C34 35.6025 33.6136 36 33 36C32.3864 36 32 35.6025 32 35C32 30.7826 28.2955 28 24 28C19.7045 28 16 30.7826 16 35C16 35.6025 15.6136 36 15 36C14.3864 36 14 35.6025 14 35C14 29.5776 18.4772 26 24 26C29.5228 26 34 29.5776 34 35ZM24 24C20.6249 24 18 21.3137 18 18C18 14.6863 20.6249 12 24 12C27.3751 12 30 14.6863 30 18C30 21.3137 27.3751 24 24 24ZM24 22C26.1478 22 28 20.1087 28 18C28 15.8913 26.1478 14 24 14C21.8522 14 20 15.8913 20 18C20 20.1087 21.8522 22 24 22Z" />
</svg>
