<svg width="48" height="48" viewBox="0 0 48 48" fill="none" xmlns="http://www.w3.org/2000/svg">
<path fill-rule="evenodd" clip-rule="evenodd" d="M22.5 31C27.1944 31 31 27.1944 31 22.5C31 17.8056 27.1944 14 22.5 14C17.8056 14 14 17.8056 14 22.5C14 27.1944 17.8056 31 22.5 31ZM22.5 29C26.0899 29 29 26.0899 29 22.5C29 18.9101 26.0899 16 22.5 16C18.9101 16 16 18.9101 16 22.5C16 26.0899 18.9101 29 22.5 29Z"/>
<rect x="29.2188" y="27.8046" width="8.76691" height="2" rx="1" transform="rotate(45 29.2188 27.8046)"/>
</svg>
