<svg width="24" height="24" viewBox="0 0 24 24" fill="none" xmlns="http://www.w3.org/2000/svg">
<path d="M12 4H8C6.89539 4 6 4.89543 6 6V18C6 19.1046 6.89539 20 8 20H16C17.1046 20 18 19.1046 18 18V10H17V18C17 18.5523 16.5522 19 16 19H8C7.44775 19 7 18.5523 7 18V6C7 5.44772 7.44775 5 8 5H12V4Z" fill="#BDD5F2"/>
<path d="M12 16C11.4478 16 11 16.4477 11 17C11 17.5523 11.4478 18 12 18C12.5522 18 13 17.5523 13 17C13 16.4477 12.5522 16 12 16Z" fill="#BDD5F2"/>
<path d="M12 4H16C17.1046 4 18 4.89543 18 6V18C18 19.1046 17.1046 20 16 20H8C6.89539 20 6 19.1046 6 18V10H6.5H7V18C7 18.5523 7.44775 19 8 19H16C16.5522 19 17 18.5523 17 18V6C17 5.44772 16.5522 5 16 5H12V4Z" fill="#BDD5F2"/>
<path d="M12 16C12.5522 16 13 16.4477 13 17C13 17.5523 12.5522 18 12 18C11.4478 18 11 17.5523 11 17C11 16.4477 11.4478 16 12 16Z" fill="#BDD5F2"/>
</svg>
