<svg width="24" height="24" viewBox="0 0 24 24" fill="none" xmlns="http://www.w3.org/2000/svg">
<path fill-rule="evenodd" clip-rule="evenodd" d="M12 12C14.2091 12 16 10.2091 16 8C16 5.79086 14.2091 4 12 4C9.79086 4 8 5.79086 8 8C8 10.2091 9.79086 12 12 12ZM12 11C13.6569 11 15 9.65685 15 8C15 6.34315 13.6569 5 12 5C10.3431 5 9 6.34315 9 8C9 9.65685 10.3431 11 12 11Z" fill="#BDD5F2"/>
<path d="M18.5 20C18.7761 20 19.0019 19.7754 18.9824 19.4999C18.726 15.8673 15.6978 13 12 13C8.30217 13 5.274 15.8673 5.01759 19.4999C4.99814 19.7754 5.22386 20 5.5 20C5.77614 20 5.99783 19.7754 6.02052 19.5002C6.27453 16.4203 8.85461 14 12 14C15.1454 14 17.7255 16.4203 17.9795 19.5002C18.0022 19.7754 18.2239 20 18.5 20Z" fill="#BDD5F2"/>
</svg>
