<svg width="24" height="24" viewBox="0 0 24 24" fill="none" xmlns="http://www.w3.org/2000/svg">
<path d="M11.9147 10.1086H12.0171C12.6084 10.1086 13.1201 10.3119 13.5522 10.7185C13.9844 11.1251 14.2004 11.6066 14.2004 12.163V12.2914L11.9147 10.1086ZM8.77612 10.6543C8.5032 11.1679 8.36674 11.6708 8.36674 12.163C8.36674 13.1045 8.71926 13.9177 9.42431 14.6025C10.1521 15.2658 11.0163 15.5975 12.0171 15.5975C12.5402 15.5975 13.0746 15.4691 13.6205 15.2123L12.4947 14.1531C12.3127 14.1959 12.1535 14.2173 12.0171 14.2173C11.4257 14.2173 10.914 14.014 10.4819 13.6074C10.0498 13.2008 9.83369 12.7193 9.83369 12.163C9.83369 12.0346 9.85643 11.8848 9.90192 11.7136L8.77612 10.6543ZM4.75053 6.86667L5.67164 6L18.5672 18.1333L17.6461 19C17.5323 18.893 17.1684 18.5613 16.5544 18.0049C15.963 17.4486 15.5082 17.0206 15.1898 16.721C14.2118 17.1062 13.1542 17.2988 12.0171 17.2988C10.2203 17.2988 8.59417 16.828 7.13859 15.8864C5.68301 14.9449 4.63682 13.7037 4 12.163C4.56859 10.8362 5.47832 9.70206 6.72921 8.76049C6.45629 8.5037 6.06965 8.13992 5.5693 7.66914C5.09168 7.19835 4.81876 6.93086 4.75053 6.86667ZM12.0171 8.7284C11.5622 8.7284 11.1187 8.81399 10.6866 8.98519L9.11727 7.50864C10.0043 7.18765 10.9709 7.02716 12.0171 7.02716C13.8138 7.02716 15.4286 7.49794 16.8614 8.43951C18.317 9.38107 19.3632 10.6222 20 12.163C19.4542 13.4255 18.624 14.5062 17.5096 15.4049L15.3945 13.4148C15.5764 13.0082 15.6674 12.5909 15.6674 12.163C15.6674 11.2214 15.3035 10.4189 14.5757 9.75556C13.8706 9.07078 13.0178 8.7284 12.0171 8.7284Z" fill="#BDD5F2"/>
</svg>
