<svg width="24" height="24" viewBox="0 0 24 24" fill="none" xmlns="http://www.w3.org/2000/svg">
<rect x="5" y="18" width="3" height="3" rx="1.5" fill="#F15526"/>
<rect x="12" y="18" width="3" height="3" rx="1.5" fill="#F15526"/>
<path fill-rule="evenodd" clip-rule="evenodd" d="M15 16H5.00003C4.5 16 4.11318 15.4222 4.00006 15L2.00001 8.00002L2 7.00002C2 6.50002 2.39832 6.00002 3.00004 6.00002H17C17.5523 6.00002 18 6.44773 18 7.00002C18 7.14497 18 8.00002 18 8.00002L16.0001 15C15.8933 15.3983 15.5 16 15 16ZM16 8.00002H4L5.50006 14H14.5001L16 8.00002Z" fill="#F15526"/>
<path d="M17.7236 3.55279C17.893 3.214 18.2393 3 18.618 3H21C21.5523 3 22 3.44772 22 4C22 4.55228 21.5523 5 21 5H18.618C17.8747 5 17.3912 4.21769 17.7236 3.55279Z" fill="#F15526"/>
<path d="M16.6423 11.0274C15.9195 11.1807 15.2775 10.6035 15.4998 10.0001L16.9998 3.99994C17.1324 3.63977 18.0551 3 18.4998 3C19.1938 3 19.1542 3.97145 18.9348 4.53011L17.3163 10.4978C17.2131 10.7605 16.9589 10.9602 16.6423 11.0274Z" fill="#F15526"/>
</svg>
